HIERARCHY
ROOT hips
{
  OFFSET 0 10.680822821525009 1.3929502295107734
  CHANNELS 6 Xposition Yposition Zposition Yrotation Xrotation Zrotation
  JOINT spine
  {
    OFFSET -7.042017322922631e-31 0.6058489940359625 0
    CHANNELS 3 Yrotation Xrotation Zrotation
    JOINT chest
    {
      OFFSET 0 1.2699794144455032 0
      CHANNELS 3 Yrotation Xrotation Zrotation
      JOINT upperChest
      {
        OFFSET 0 1.217799211677689 0
        CHANNELS 3 Yrotation Xrotation Zrotation
        JOINT neck
        {
          OFFSET 0 1.5248826104153006 0
          CHANNELS 3 Yrotation Xrotation Zrotation
          JOINT head
          {
            OFFSET 0 0.8197772727844447 0
            CHANNELS 3 Yrotation Xrotation Zrotation
            JOINT leftEye
            {
              OFFSET 0.2793952361220866 0.6769952096623495 0.1830357412467788
              CHANNELS 3 Yrotation Xrotation Zrotation
              End Site
              {
                OFFSET 0.2793952361220866 0.6769952096623495 0.1830357412467788
              }
            }
            JOINT rightEye
            {
              OFFSET -0.27939522230689573 0.676995205357064 0.18303631459760622
              CHANNELS 3 Yrotation Xrotation Zrotation
              End Site
              {
                OFFSET -0.27939522230689573 0.676995205357064 0.18303631459760622
              }
            }
          }
        }
        JOINT leftShoulder
        {
          OFFSET 0.41486978509200423 1.1670505408695453 0
          CHANNELS 3 Yrotation Xrotation Zrotation
          JOINT leftUpperArm
          {
            OFFSET 0.9737926108153417 0 0
            CHANNELS 3 Yrotation Xrotation Zrotation
            JOINT leftLowerArm
            {
              OFFSET 2.5269332222665284 0 0
              CHANNELS 3 Yrotation Xrotation Zrotation
              JOINT leftHand
              {
                OFFSET 2.4263782738425914 0 0
                CHANNELS 3 Yrotation Xrotation Zrotation
                JOINT leftIndexProximal
                {
                  OFFSET 0.724320348022514 0.08170607082582437 0.20360061616140124
                  CHANNELS 3 Yrotation Xrotation Zrotation
                  JOINT leftIndexIntermediate
                  {
                    OFFSET 0.36548960630744587 -0.010566596513783999 -0.01414783573280308
                    CHANNELS 3 Yrotation Xrotation Zrotation
                    JOINT leftIndexDistal
                    {
                      OFFSET 0.22502819650693362 -0.007863819831430696 -0.007567681939621526
                      CHANNELS 3 Yrotation Xrotation Zrotation
                      End Site
                      {
                        OFFSET 0.22502819650693362 -0.007863819831430696 -0.007567681939621526
                      }
                    }
                  }
                }
                JOINT leftLittleProximal
                {
                  OFFSET 0.6720322998298205 0.08170601055037707 -0.3230036039466837
                  CHANNELS 3 Yrotation Xrotation Zrotation
                  JOINT leftLittleIntermediate
                  {
                    OFFSET 0.34583592281688713 5.476543019078406e-8 1.3869203337180114e-7
                    CHANNELS 3 Yrotation Xrotation Zrotation
                    JOINT leftLittleDistal
                    {
                      OFFSET 0.19925728062053938 0.003098047439490381 0.0038303983709246925
                      CHANNELS 3 Yrotation Xrotation Zrotation
                      End Site
                      {
                        OFFSET 0.19925728062053938 0.003098047439490381 0.0038303983709246925
                      }
                    }
                  }
                }
                JOINT leftMiddleProximal
                {
                  OFFSET 0.7300436596551069 0.0817073395107144 0.022661722987926763
                  CHANNELS 3 Yrotation Xrotation Zrotation
                  JOINT leftMiddleIntermediate
                  {
                    OFFSET 0.40758254347686607 -0.0000012383587111308714 2.408460318820138e-7
                    CHANNELS 3 Yrotation Xrotation Zrotation
                    JOINT leftMiddleDistal
                    {
                      OFFSET 0.2514490105498507 0.0000013869132886590307 9.738618134136345e-8
                      CHANNELS 3 Yrotation Xrotation Zrotation
                      End Site
                      {
                        OFFSET 0.2514490105498507 0.0000013869132886590307 9.738618134136345e-8
                      }
                    }
                  }
                }
                JOINT leftRingProximal
                {
                  OFFSET 0.7217261161191838 0.08170601902187746 -0.15043395722184966
                  CHANNELS 3 Yrotation Xrotation Zrotation
                  JOINT leftRingIntermediate
                  {
                    OFFSET 0.37808807487521556 0.0000013754022405443322 2.2046919317952884e-7
                    CHANNELS 3 Yrotation Xrotation Zrotation
                    JOINT leftRingDistal
                    {
                      OFFSET 0.21812105442344254 -0.002713483731960231 -0.004991354517454624
                      CHANNELS 3 Yrotation Xrotation Zrotation
                      End Site
                      {
                        OFFSET 0.21812105442344254 -0.002713483731960231 -0.004991354517454624
                      }
                    }
                  }
                }
                JOINT leftThumbProximal
                {
                  OFFSET 0.10793587079521427 -0.1652791240518252 -0.07775251827190094
                  CHANNELS 3 Yrotation Xrotation Zrotation
                  JOINT leftThumbIntermediate
                  {
                    OFFSET 0.40355819082296684 -0.017484006740276614 0.3177776014416309
                    CHANNELS 3 Yrotation Xrotation Zrotation
                    JOINT leftThumbDistal
                    {
                      OFFSET 0.2318764658022603 -0.018510186824293617 0.21396001800186287
                      CHANNELS 3 Yrotation Xrotation Zrotation
                      End Site
                      {
                        OFFSET 0.2318764658022603 -0.018510186824293617 0.21396001800186287
                      }
                    }
                  }
                }
              }
            }
          }
        }
        JOINT rightShoulder
        {
          OFFSET -0.4148697850920044 1.1670505408695453 0
          CHANNELS 3 Yrotation Xrotation Zrotation
          JOINT rightUpperArm
          {
            OFFSET -0.9737926108153414 0 0
            CHANNELS 3 Yrotation Xrotation Zrotation
            JOINT rightLowerArm
            {
              OFFSET -2.5269332222665293 0 0
              CHANNELS 3 Yrotation Xrotation Zrotation
              JOINT rightHand
              {
                OFFSET -2.42637827384259 0 0
                CHANNELS 3 Yrotation Xrotation Zrotation
                JOINT rightIndexProximal
                {
                  OFFSET -0.724320348022514 0.08170607082582437 0.20360061616140124
                  CHANNELS 3 Yrotation Xrotation Zrotation
                  JOINT rightIndexIntermediate
                  {
                    OFFSET -0.36548960630744587 -0.010566596513783999 -0.01414783573280308
                    CHANNELS 3 Yrotation Xrotation Zrotation
                    JOINT rightIndexDistal
                    {
                      OFFSET -0.22502819650693362 -0.007863819831430696 -0.007567681939621526
                      CHANNELS 3 Yrotation Xrotation Zrotation
                      End Site
                      {
                        OFFSET -0.22502819650693362 -0.007863819831430696 -0.007567681939621526
                      }
                    }
                  }
                }
                JOINT rightLittleProximal
                {
                  OFFSET -0.6720322998298205 0.08170601055037707 -0.3230036039466837
                  CHANNELS 3 Yrotation Xrotation Zrotation
                  JOINT rightLittleIntermediate
                  {
                    OFFSET -0.34583592281688713 5.476543019078406e-8 1.3869203337180114e-7
                    CHANNELS 3 Yrotation Xrotation Zrotation
                    JOINT rightLittleDistal
                    {
                      OFFSET -0.19925728062053938 0.003098047439490381 0.0038303983709246925
                      CHANNELS 3 Yrotation Xrotation Zrotation
                      End Site
                      {
                        OFFSET -0.19925728062053938 0.003098047439490381 0.0038303983709246925
                      }
                    }
                  }
                }
                JOINT rightMiddleProximal
                {
                  OFFSET -0.7300436596551069 0.0817073395107144 0.022661722987926763
                  CHANNELS 3 Yrotation Xrotation Zrotation
                  JOINT rightMiddleIntermediate
                  {
                    OFFSET -0.40758254347686607 -0.0000012383587111308714 2.408460318820138e-7
                    CHANNELS 3 Yrotation Xrotation Zrotation
                    JOINT rightMiddleDistal
                    {
                      OFFSET -0.2514490105498507 0.0000013869132886590307 9.738618134136345e-8
                      CHANNELS 3 Yrotation Xrotation Zrotation
                      End Site
                      {
                        OFFSET -0.2514490105498507 0.0000013869132886590307 9.738618134136345e-8
                      }
                    }
                  }
                }
                JOINT rightRingProximal
                {
                  OFFSET -0.7217261161191838 0.08170601902187746 -0.15043395722184966
                  CHANNELS 3 Yrotation Xrotation Zrotation
                  JOINT rightRingIntermediate
                  {
                    OFFSET -0.37808807487521556 0.0000013754022405443322 2.2046919317952884e-7
                    CHANNELS 3 Yrotation Xrotation Zrotation
                    JOINT rightRingDistal
                    {
                      OFFSET -0.21812105442344254 -0.002713483731960231 -0.004991354517454624
                      CHANNELS 3 Yrotation Xrotation Zrotation
                      End Site
                      {
                        OFFSET -0.21812105442344254 -0.002713483731960231 -0.004991354517454624
                      }
                    }
                  }
                }
                JOINT rightThumbProximal
                {
                  OFFSET -0.10793587079521427 -0.1652791240518252 -0.07775251827190094
                  CHANNELS 3 Yrotation Xrotation Zrotation
                  JOINT rightThumbIntermediate
                  {
                    OFFSET -0.40355819082296684 -0.017484006740276614 0.3177776014416309
                    CHANNELS 3 Yrotation Xrotation Zrotation
                    JOINT rightThumbDistal
                    {
                      OFFSET -0.2318764658022603 -0.018510186824293617 0.21396001800186287
                      CHANNELS 3 Yrotation Xrotation Zrotation
                      End Site
                      {
                        OFFSET -0.2318764658022603 -0.018510186824293617 0.21396001800186287
                      }
                    }
                  }
                }
              }
            }
          }
        }
      }
    }
  }
  JOINT leftUpperLeg
  {
    OFFSET 0.8486251390888677 -0.4421577294694363 0
    CHANNELS 3 Yrotation Xrotation Zrotation
    JOINT leftLowerLeg
    {
      OFFSET 0 -4.10147812638609 0
      CHANNELS 3 Yrotation Xrotation Zrotation
      JOINT leftFoot
      {
        OFFSET -0.0002543926476658853 -4.77292286812444 0.007402811231737388
        CHANNELS 3 Yrotation Xrotation Zrotation
        JOINT leftToes
        {
          OFFSET 0 -0.7027875951174846 1.2062924140498823
          CHANNELS 3 Yrotation Xrotation Zrotation
          End Site
          {
            OFFSET 0 -0.7027875951174846 1.2062924140498823
          }
        }
      }
    }
  }
  JOINT rightUpperLeg
  {
    OFFSET -0.8486251390888677 -0.4421577294694363 0
    CHANNELS 3 Yrotation Xrotation Zrotation
    JOINT rightLowerLeg
    {
      OFFSET 0 -4.10147812638609 0
      CHANNELS 3 Yrotation Xrotation Zrotation
      JOINT rightFoot
      {
        OFFSET 0.0002543926476658853 -4.77292286812444 0.007402811231737388
        CHANNELS 3 Yrotation Xrotation Zrotation
        JOINT rightToes
        {
          OFFSET 0 -0.7027875951174846 1.2062924140498823
          CHANNELS 3 Yrotation Xrotation Zrotation
          End Site
          {
            OFFSET 0 -0.7027875951174846 1.2062924140498823
          }
        }
      }
    }
  }
}
MOTION
Frames: 4
Frame Time: 0.03333333333333333
-1.138449788093567 -2.5002865513834074 -0.7397993803024292 -13.179011093000627 34.15909372221977 -15.354497643863924 3.202988169485947 22.708453324994558 5.926023298927296 0.4086601972325439 -3.809509655904419 0.09909272387268675 0 0 0 4.089142222459754 -13.761749196130717 7.622199335359782 7.612299955700209 -36.13382240885654 -2.099909989844257 0 0 0 0 0 0 -0.3753207734158054 -0.26617916571712547 23.931415473961458 -62.566469770584504 5.7848387089237985 -62.352371228500424 -61.83836984787207 -6.762097693140977 4.934602888131564 -24.859754575137597 41.138770792749185 28.744398214634774 -9.637482874650125 -1.4632913490300683 -0.925685804595091 1.0331425129339245 0.08716536034587317 -9.646942960095872 1.0331294949872123 0.08715335414008098 -9.646945485200323 11.452595858766374 1.9574314359520344 -4.168884623859103 -3.7398742978412747 -0.005309797989635923 -3.439571709399232 0.32071409090476616 0.008326777694977019 -2.9820470395843754 -0.43632543953763175 0.015460024984691957 4.058449577283094 0.6214131121533569 0.03139477599292323 -5.785112050576576 0.6197270363507994 0.03122784987994182 -5.769108212273482 0.0008723146665962373 -0.000011702879549992787 -0.008297510013612005 1.1982856050909945 0.11757968133587308 -11.207363053185993 1.198288699350081 0.11757338474197418 -11.207354678244718 29.31857310648589 -18.310945131193037 -6.160408803382194 8.787143361418467 4.084831799888243 1.3359154503224644 11.451233988609664 1.6541651085858493 3.848389766110092 0.4635316812589042 -0.005164626036805232 -22.996865485167387 54.5700618767546 -4.887211085253085 76.8269208698135 67.70067517325383 -7.044596988677619 -5.714331967600351 -0.4926657818199387 25.637385968559652 -44.00785497824772 4.632467864238511 -0.6832368135351552 0.4768602015995997 -1.0410993846267598 0.08757329787039865 9.615448914890129 -1.0410961835004129 0.0875681685524235 9.615448073110127 -6.8778023402001685 0.9364981995659172 -0.8046166470320455 -0.8385338257679703 0.05667639203728173 7.731800404027867 -0.8385174990874975 0.056650158495150565 7.731782178319541 0.0000022510950293455687 0.0000022413945920114817 4.3364964926721154e-7 -0.9684580603245588 0.07570197012404704 8.939028077381309 -0.9684854839082833 0.07571454328598572 8.938995497354531 0.0000022496746190692646 0.000002191216329357216 4.3366929237292427e-7 -0.9334684457370059 0.07030483563626334 8.613455620330269 -0.9334793299143681 0.07030434204800251 8.613440758398543 -16.2100321445177 -16.13934040850361 -1.3171864523871344 -11.651545569083119 5.24443167633104 -1.390166582252438 -9.122527502558736 0.8461509627252636 -3.2709452218160853 -24.703015058672804 -84.25921954353457 30.33954338845512 42.53491057981969 75.20967133702398 51.455804798392926 12.636009546766566 -28.721759273097938 -12.847330597548547 -0.000012417362544935225 -0.6085762289276081 1.603918723336857e-7 95.36616475814002 -74.57477769592849 -76.14500648060859 -15.311442299873434 71.29322211108894 -4.466154633799654 -12.274915804530568 -20.526120691467163 9.919314792361691 0.0000013904595272019993 -0.002597248843583769 0.0000043846721763211724
-1.1463744640350342 -2.2782501896890714 -0.8056957721710205 -16.1468660849467 40.05852159646612 -19.137930937842604 5.13576243837391 19.752424724968094 5.954877965159276 0.5946579179519 -7.024114033881658 2.8241072869732493 0 0 0 3.56586855870894 -14.73116790728497 7.8475001806903455 5.306240701464842 -38.08622193823693 -2.613988053618193 0 0 0 0 0 0 -4.046773664427083 0.8045681376726245 21.01978563150557 -62.115278300416975 9.554952704583147 -64.02430845866078 -66.79905245815523 -7.006315358042056 5.592666380429408 -25.89273086734562 42.10031667403711 28.158900174973457 -9.638849739159484 -1.4615756656524286 -0.915564584259725 1.0331425129339245 0.08716536034587317 -9.646942960095872 1.0331294949872123 0.08715335414008098 -9.646945485200323 11.451846623802536 1.9553585459073104 -4.158787856277735 -3.7398798355521463 -0.005313234762082185 -3.439565743749403 0.3207290850696528 0.00835347896578842 -2.9820485316650394 -0.43243179034153145 0.015176482077563325 4.022189361582161 0.6214115114217049 0.03138367359880255 -5.785118845980092 0.6197064402631441 0.031209663831566436 -5.769106513374598 -0.00020507942356020096 -0.000011851548344690627 0.0019637873579604536 1.1982588237448135 0.1175560691087595 -11.207364728174193 1.1983028902623551 0.1175419417932248 -11.207368078150528 29.318589561670073 -18.310963117389285 -6.160405104855429 8.787143361418467 4.084831799888243 1.3359154503224644 11.451233988609664 1.6541651085858493 3.848389766110092 0.3808721633601903 -0.07736133404674365 -23.729094120094185 53.877681262841456 -1.0745712790938644 78.66938402574613 68.85061556419525 -7.090559509902087 -5.870476034121664 2.34350151392771 27.979673298666025 -44.345903948281965 4.632464184222697 -0.6832334515623922 0.47687151451302223 -1.04108465944551 0.08756532041357414 9.615446389550108 -1.0411149634415557 0.08758890593810373 9.615427299950406 -6.877799796971238 0.9365020420605931 -0.8045919400930499 -0.8385380408259787 0.05666261159028229 7.731775410222254 -0.8385337724128056 0.056668074410268617 7.731779640283085 -1.0431164802538763e-9 5.017823084871815e-8 1.0468999177720403e-11 -0.968473639481126 0.07571624416465673 8.939003931401823 -0.9684799351676432 0.07569043749965133 8.93900477480653 -6.049277345761302e-10 6.3611093629270335e-15 7.92890540015837e-12 -0.9334689792751134 0.07032115072931996 8.613456464475052 -0.9334717536732702 0.07029866578300342 8.613445823267268 -16.2100321445177 -16.13934040850361 -1.3171864523871344 -11.651545569083119 5.24443167633104 -1.390166582252438 -9.122527502558736 0.8461509627252636 -3.2709452218160853 -78.8476629635409 -85.23650471177694 85.50496917534227 31.935051017214356 70.95181303028484 40.39487295709282 11.64103552295293 -25.439349043306645 -12.057660999946378 -0.0000015364201153132665 -0.20724134465488722 0.000008131046802929053 107.2999476764964 -75.5057559230439 -88.97611220507218 -12.502087527609755 64.31762358078637 -1.3826212689903328 -11.193093767264354 -17.09872782360492 8.224968406516892 -0.000001346144171825357 -0.002575654373407551 0.000003192623079924608
-1.1534186601638794 -2.0423588475259855 -0.8230094313621521 -17.124588735081726 43.33103189953056 -20.86713654241483 6.384208535640122 16.978434282760862 5.326090657192746 0.7239751886263972 -7.951576225422902 4.782882029755238 0 0 0 3.1580302990720557 -14.670050225737874 8.019761209374947 2.720834589833477 -40.83010852737198 -2.9014984453713 0 0 0 0 0 0 -8.352889825414266 1.759555920541613 17.830619561466882 -59.167721775523276 12.321117679488166 -64.24571677200663 -69.1114079468726 -7.100579724576322 5.906032323241461 -29.053402839038153 42.87434558878857 25.00751975015544 -9.66848650784797 -1.4509432832772569 -0.8368078002314008 1.0331425129339245 0.08716536034587317 -9.646942960095872 1.0331294949872123 0.08715335414008098 -9.646945485200323 11.42686560992277 1.936921341384384 -4.081162779514325 -3.73988239141868 -0.0053067397457414985 -3.4395602042173525 0.3207095553032793 0.00835378829198581 -2.9820533987253794 -0.45497686345609245 0.012744093393458231 4.0544494105558035 0.6214030275439325 0.03137082697154272 -5.785122243681788 0.6196957153573327 0.0312166974600318 -5.769116282043042 -0.027854914951274498 -0.0026931714384228647 0.08137490151220726 1.198286672076887 0.11755953757149809 -11.207367240656453 1.1982971285385924 0.1175656607422569 -11.207355515738868 29.268295969994327 -18.353336592616824 -6.085781833724263 8.787143361418467 4.084831799888243 1.3359154503224644 11.451233988609664 1.6541651085858493 3.848389766110092 0.7638705521188975 0.044990033799354644 -23.77338828441314 51.57960158253202 1.3173786704090324 79.68300740119156 68.7884419144857 -7.088164292320598 -5.862000243157033 3.553902090669716 28.887962799994522 -43.21434502154743 4.632457801384469 -0.683241989905922 0.4768588675296182 -1.0411112287941873 0.08757165702225568 9.6154390848708 -1.0411229662573156 0.08755928396004166 9.615454807350032 -6.877789215036241 0.9365042835158226 -0.8045994108737712 -0.8385299841961066 0.0566757183561844 7.731759335990328 -0.8385356931987347 0.05667566499530541 7.731769488136951 0.0000015091504999162313 -0.0000028901713621566464 -4.743945394028804e-7 -0.9684877247458443 0.07570154323685131 8.939030607595237 -0.96848921863755 0.07571881882805694 8.938978942017277 0.0000015095835642416596 -0.0000029403496248109113 -4.743992720682464e-7 -0.933496936671723 0.07029006133899907 8.613443290832922 -0.9334718603808916 0.07031781567350254 8.613448355701578 -16.2100321445177 -16.13934040850361 -1.3171864523871344 -11.651545569083119 5.24443167633104 -1.390166582252438 -9.122527502558736 0.8461509627252636 -3.2709452218160853 -88.79223236191704 -84.75640984235741 95.95732599956222 25.226386189592716 66.06664924159607 33.199730343574636 10.185084714497412 -22.786056029780546 -11.065899505015679 -0.0000017122071887223534 -0.051902334456909276 -0.000004247057810151965 106.80343869528869 -76.93246228671568 -88.60943884888094 -12.817577172232117 57.787796348817416 -3.391087496966134 -10.158921250991307 -14.180422393733977 7.8661353349806475 1.341550840198825e-7 -0.0025788718660874517 0.000002132877933834437
-1.1535484790802002 -1.8076100071939543 -0.801125705242157 -16.237307699499638 44.758535660330956 -20.84200574684993 6.732936682417573 15.255718525989211 4.913738898118487 0.7755787773548141 -8.079356420490118 5.7358435858781505 0 0 0 2.7973228453812387 -14.11830762235912 8.36653732313554 0.4029565866738655 -43.127228655200184 -3.1882800400414633 0 0 0 0 0 0 -11.718882362102484 2.246843613613738 14.517171553949241 -54.745008853585844 14.092787244530246 -63.80502091117004 -68.21524049328372 -7.065530788589094 5.784153803081114 -35.23427582960338 44.24137463369675 19.068329643443246 -9.741718979529482 -1.4271808173915432 -0.657424677457468 1.0331425129339245 0.08716536034587317 -9.646942960095872 1.0331294949872123 0.08715335414008098 -9.646945485200323 11.364080975768102 1.8944665561868872 -3.9045889770006457 -3.7398955967288616 -0.005321348529928157 -3.4395638262190853 0.320716465425543 0.008305695155283148 -2.9820659748343146 -0.5185622407913655 0.007093216504716656 4.187454614957331 0.6214125785761397 0.03145683467416984 -5.785093018983177 0.6197114558907226 0.03119484952258591 -5.769124270373562 -0.09661586721922868 -0.009296341902188941 0.262141073252908 1.1982914735133943 0.11757784038257198 -11.207356353233013 1.1982873122684223 0.11754424965496889 -11.207363890680096 29.138493217188763 -18.46235815445953 -5.89287895345187 8.787143361418467 4.084831799888243 1.3359154503224644 11.451233988609664 1.6541651085858493 3.848389766110092 1.6405625813041105 0.3826339367995017 -22.970091315364026 48.15672464244759 2.887252500309528 80.425440195147 68.29569157542466 -7.068773726126988 -5.795014176168738 3.321661243990767 28.59427373995938 -40.57486250423273 4.632429291372309 -0.6832289155673981 0.4768388031170339 -1.0410976773593756 0.08755471493167793 9.61546154158967 -1.0410941561203897 0.08758889259787492 9.615443864210048 -6.877802764071654 0.9364939301273931 -0.8046066682035886 -0.838531264720062 0.05668352905484808 7.73175549248997 -0.8385368136571923 0.05665746893557037 7.731789405869955 -0.000002715882461610932 0.0000017426343575270951 6.637560122507348e-7 -0.968485057082081 0.07568278688069299 8.93901458290643 -0.9684845235493276 0.0757258691369023 8.938984845850602 -0.000002713578620466305 0.0000016924561966505798 6.637298553690344e-7 -0.9334884000621184 0.07029066831915746 8.613462373488415 -0.9334684457370059 0.0703077771554935 8.613429784515839 -16.2100321445177 -16.13934040850361 -1.3171864523871344 -11.651545569083119 5.24443167633104 -1.390166582252438 -9.122527502558736 0.8461509627252636 -3.2709452218160853 -70.27734255065666 -85.18285090088256 77.54128384765887 20.942233948967942 61.00166427370304 28.427512473940954 8.149436628165363 -20.666322411888643 -9.829508732795576 -8.553808702582545e-7 -0.05148974817441733 -0.0000021235384721884584 93.87499980420434 -78.81899555482698 -76.30772995151331 -13.279915332110967 51.7899457153056 -5.534599948411967 -8.508421265721239 -11.884478540725596 7.49777197316631 0.0000019065972946884032 -0.0025788718660874517 -0.0000022126055341456195
